<svg width="158" height="35" viewBox="0 0 158 35" fill="none" xmlns="http://www.w3.org/2000/svg">
<path d="M13.212 14.0489C14.3633 13.1662 16.6418 13.4149 17.91 13.5293C17.9332 13.5311 17.9564 13.5329 17.9796 13.5347C18.28 13.5625 18.5624 13.5572 18.8933 13.5491C19.6825 13.528 20.7454 13.5054 23.0215 13.8574C23.6699 13.7818 24.3189 13.7119 24.9688 13.6497C31.9864 12.9784 39.1427 12.6279 46.4307 12.1845C46.52 12.1641 46.6109 12.1432 46.7027 12.1221C48.4768 11.7149 50.6772 11.1902 52.1344 11.225C53.9876 11.2698 55.2698 11.3881 56.3278 11.4993C62.1679 11.0261 68.0334 10.3933 73.8527 9.41927C75.6763 9.11405 77.4959 8.77455 79.3109 8.39624C80.981 8.04814 82.6503 7.67627 84.3178 7.28644C85.2589 6.90657 86.1447 6.50441 86.9698 6.13273C88.1294 5.6104 89.1637 5.14954 90.0457 4.8952C90.2137 4.84675 90.3842 4.8012 90.5567 4.75834C92.6354 4.24394 94.9806 4.14176 96.7478 4.09572C97.0617 4.08721 97.3577 4.08023 97.6312 4.07224C99.1112 3.73978 100.595 3.41943 102.08 3.11537C102.189 3.17378 102.298 3.23521 102.409 3.29838C103.798 4.08824 105.353 3.90139 107.816 3.66574C108.888 3.56401 110.131 3.45499 111.598 3.42204C112.543 3.40122 113.05 3.7458 113.462 4.02659C113.584 4.10926 113.697 4.18662 113.811 4.2479C114.201 4.45782 114.583 4.18449 115.037 3.86308C115.625 3.44626 116.337 2.94718 117.323 3.32264C120.452 4.5238 121.76 3.60013 122.775 2.89221C123.071 2.6854 123.341 2.49897 123.619 2.39327C124.52 2.05017 125.817 2.35654 126.792 2.79342C127.566 3.13874 129.104 2.78563 130.276 2.3476C130.719 2.18166 131.317 2.18072 132.022 2.18315C132.751 2.18564 133.593 2.19197 134.497 2.01832C136.782 1.58058 137.997 1.38379 138.974 1.22493C139.253 1.17987 139.512 1.13924 139.771 1.09676C140.591 0.962462 141.605 0.864225 142.632 0.768773C143.861 0.654349 145.107 0.543243 146.059 0.369425C148.494 0.694518 150.916 1.08748 153.329 1.48846C154.569 1.69595 155.72 2.57063 156.527 3.95541C157.333 5.34127 157.728 7.11364 157.629 8.92236C157.53 10.7312 156.944 12.4493 156 13.741C155.056 15.0315 153.834 15.7817 152.598 15.8633C150.109 16.0246 147.627 16.1961 145.156 16.3252C142.146 16.4824 139.154 16.577 136.176 16.514C134.093 16.4699 132.015 16.3996 129.94 16.3156C129.727 16.307 129.513 16.2978 129.3 16.2888C127.557 16.7327 125.831 17.1545 124.618 17.3184C123.616 17.4536 122.881 17.2319 122.25 17.0438C121.815 16.9144 121.43 16.8009 121.045 16.8321C120.838 16.8488 120.556 16.885 120.216 16.9293C118.827 17.1091 116.485 17.4351 114.318 17.1314C113.355 16.9957 112.226 16.6899 111.142 16.408C109.593 16.0039 108.137 15.6506 107.44 15.8673C106.217 16.2468 104.77 16.1791 103.486 16.1354C102.263 16.0929 101.189 16.0714 100.635 16.4523C99.9729 16.9078 99.3502 16.848 98.4183 16.7692C97.7723 16.7151 96.9779 16.6525 95.9271 16.7549C94.7147 16.8738 93.824 16.7815 93.0639 16.7067C92.9878 16.6993 92.9131 16.692 92.8395 16.6852C91.8539 16.6008 91.0679 16.5815 90.0599 17.1758C88.8529 17.8869 87.5604 18.4479 86.4638 18.5207C85.9647 18.5537 85.412 18.6829 84.8372 18.8181C84.0763 18.9972 83.2746 19.1865 82.5048 19.176C81.8705 19.1673 81.2972 18.9277 80.7891 18.7159C80.6306 18.6499 80.4786 18.587 80.333 18.5342C79.85 18.6399 79.3674 18.7479 78.8856 18.8599C78.8188 18.9317 78.7494 19.0104 78.6767 19.0918C78.3119 19.5003 77.8632 20.0018 77.2471 20.3347C76.2723 20.8616 75.3181 20.8628 74.3105 20.8631C73.5262 20.8633 72.7096 20.8632 71.8253 21.1127C71.2224 21.2829 70.5561 21.5709 69.8943 21.8563C68.9114 22.2802 67.9396 22.6975 67.2066 22.7161C66.9319 22.723 66.6592 22.5545 66.3892 22.3866C66.388 22.3855 66.3867 22.3844 66.3854 22.3833C66.3671 22.3719 66.3488 22.3608 66.3305 22.3495C64.6462 22.8738 62.9612 23.4124 61.2735 23.9556C61.1351 24.0417 60.995 24.1273 60.856 24.2118C60.1769 24.6246 59.5155 25.0245 59.1228 25.4819C58.6972 25.9777 57.4726 26.4608 56.1762 26.9645C55.3272 27.2946 54.4471 27.6334 53.7431 27.994C53.3314 28.2048 52.8751 28.0591 52.4063 27.9079C51.9688 27.7668 51.5202 27.6214 51.0842 27.758C50.8657 27.8264 50.6412 27.9633 50.4012 28.1093C50.19 28.2379 49.9664 28.3739 49.7248 28.476C49.5003 28.5706 48.9571 28.5422 48.2609 28.5048C47.8306 28.4816 47.3419 28.4553 46.8332 28.451C45.5531 28.8155 44.2673 29.1677 42.9751 29.5029C42.733 29.7437 42.5357 30.0372 42.3989 30.3954C42.3008 30.6524 42.2296 30.9522 42.1561 31.2588C42.0559 31.6759 41.9516 32.1071 41.7702 32.4659C41.6284 32.7463 41.43 32.8798 41.2704 32.797C41.1961 32.7583 41.1307 32.674 41.0714 32.5978C41.0035 32.5105 40.943 32.4329 40.8853 32.4441C40.8437 32.4524 40.8103 32.5266 40.769 32.6166C40.7031 32.7603 40.617 32.9458 40.448 32.9774C39.819 33.0947 39.0913 33.1465 38.3778 33.194C37.5844 33.2469 36.8076 33.2954 36.2014 33.4284C35.5222 33.5776 34.5084 33.4547 33.4942 33.3255C32.7872 33.2354 32.0799 33.1432 31.482 33.1399C30.8962 33.1369 30.3096 33.3441 29.7403 33.5436C29.057 33.7832 28.3956 34.0113 27.7978 33.8472C27.677 33.8138 27.505 33.5544 27.2908 33.2294C27.139 32.999 26.965 32.7356 26.7732 32.4957C26.0454 32.5653 25.315 32.6202 24.5827 32.6618C24.5602 32.7012 24.5369 32.7413 24.5135 32.7823C24.5132 32.7832 24.5129 32.7841 24.5125 32.785C23.9884 33.7083 23.2527 34.9714 22.0331 34.3436C21.7237 34.1838 21.5138 33.8622 21.3255 33.5726C21.1406 33.2881 20.9765 33.0333 20.7585 32.992C20.511 32.9451 20.2357 33.1455 19.9338 33.3627C19.5102 33.6677 19.0326 34.0071 18.5199 33.7456C18.4849 33.7277 18.4472 33.7081 18.4081 33.6885C18.037 33.5026 17.4902 33.2263 16.9342 32.6391C15.3614 32.5492 13.7924 32.4116 12.221 32.2358C9.60873 31.9426 6.99737 31.5426 4.4116 31.081C3.15024 30.8544 1.96756 29.9741 1.14878 28.5997C0.327858 27.2233 -0.0631366 25.4791 0.0347975 23.7048C0.132646 21.93 0.704307 20.2431 1.59163 18.9457C2.48015 17.65 3.61171 16.8589 4.76985 16.692C6.65454 16.4238 8.53452 16.1195 10.4082 15.8064C10.506 15.7683 10.6042 15.7313 10.7019 15.6965C11.4283 15.4373 12.0957 14.9231 12.7566 14.4043C12.9084 14.2851 13.0601 14.1655 13.212 14.0489Z" fill="#90008C"/>
</svg>
